<?xml version="1.0" encoding="UTF-8"?>
<svg version="1.1" xmlns="http://www.w3.org/2000/svg" width="450" height="444">
<path d="M0 0 C148.5 0 297 0 450 0 C450 146.52 450 293.04 450 444 C301.5 444 153 444 0 444 C0 297.48 0 150.96 0 0 Z " fill="#478CBF" transform="translate(0,0)"/>
<path d="M0 0 C8.3866368 8.29481231 16.26295917 16.9775037 23.6484375 26.17578125 C27.34082184 30.61032258 31.2929072 34.79587424 35.2265625 39.015625 C39.53105514 43.63353761 43.64312405 48.40761607 47.73828125 53.2109375 C53.32318933 59.75655431 58.96553961 66.22039507 64.77734375 72.56640625 C68.8493804 77.02489278 72.79842118 81.58497728 76.7109375 86.18359375 C81.61350465 91.93972213 86.54064048 97.64766712 91.6875 103.1875 C95.83561772 107.65413654 99.75152059 112.26212189 103.5390625 117.0390625 C105.84446311 119.9446768 105.84446311 119.9446768 108.17817688 122.01165771 C112.77995809 126.47284127 115.56164083 129.74621104 116.02172852 136.27587891 C116.0203225 138.59326208 115.97057941 140.91099286 115.87890625 143.2265625 C115.85980446 145.06980606 115.85980446 145.06980606 115.84031677 146.95028687 C115.79025997 150.84393461 115.67740213 154.73278083 115.5625 158.625 C115.51731835 161.27727605 115.47626028 163.92962576 115.43945312 166.58203125 C115.34065515 173.0565146 115.18555544 179.52744567 115 186 C121.6 186 128.2 186 135 186 C135 141.45 135 96.9 135 51 C130.38 51 125.76 51 121 51 C121 41.1 121 31.2 121 21 C130.9 21 140.8 21 151 21 C151 26.94 151 32.88 151 39 C156.28 39 161.56 39 167 39 C167 33.39 167 27.78 167 22 C176.24 22 185.48 22 195 22 C195 27.61 195 33.22 195 39 C200.94 39 206.88 39 213 39 C213 33.06 213 27.12 213 21 C222.57 21 232.14 21 242 21 C242 30.57 242 40.14 242 50 C237.05 50 232.1 50 227 50 C227 130.19 227 210.38 227 293 C230.63 293 234.26 293 238 293 C238 302.57 238 312.14 238 322 C117.88 322 -2.24 322 -126 322 C-126 312.76 -126 303.52 -126 294 C-122.37 294 -118.74 294 -115 294 C-115.00645255 293.16124045 -115.0129051 292.32248091 -115.01955318 291.45830441 C-115.17418521 271.04360709 -115.28999998 250.62901079 -115.3626852 230.21385098 C-115.39877022 220.34116514 -115.44796123 210.46887037 -115.52807617 200.59643555 C-115.59787638 191.9909624 -115.64301461 183.38577248 -115.65861946 174.78002411 C-115.66774057 170.22373997 -115.68915461 165.66826603 -115.7401104 161.11224174 C-115.78770686 156.82172363 -115.80226464 152.53234755 -115.79175377 148.2415905 C-115.79367591 146.6689991 -115.80755299 145.09636862 -115.83443832 143.52400589 C-116.02774091 131.63332123 -116.02774091 131.63332123 -113.46537971 127.56112862 C-111.73348013 125.81860398 -109.99358013 124.42490955 -108 123 C-106.59494811 121.3374386 -105.21684771 119.65147957 -103.875 117.9375 C-100.25944094 113.43964581 -96.45724358 109.19906878 -92.5 105 C-88.67775589 100.94140192 -84.98560985 96.85701232 -81.5 92.5 C-77.49652544 87.4956568 -73.18663292 82.85300698 -68.796875 78.19140625 C-65.55421929 74.72903789 -62.46555917 71.20694897 -59.5 67.5 C-56.01437264 63.1429658 -52.32206333 59.05878467 -48.5 55 C-43.87705042 50.09039702 -39.53398821 45.05521457 -35.31640625 39.7890625 C-31.64013503 35.36265837 -27.69573628 31.19198888 -23.7734375 26.984375 C-19.37277167 22.26328661 -15.17654532 17.37514301 -10.98046875 12.47265625 C-10.4390625 11.84029053 -9.89765625 11.2079248 -9.33984375 10.55639648 C-8.25411741 9.28730945 -7.16944886 8.01731654 -6.0859375 6.74633789 C-4.11084252 4.43408603 -2.15125055 2.15125055 0 0 Z " fill="#FEFEFE" transform="translate(173,67)"/>
<path d="M0 0 C4.95 0 9.9 0 15 0 C15 10.56 15 21.12 15 32 C10.05 32 5.1 32 0 32 C0 21.44 0 10.88 0 0 Z " fill="#5796C4" transform="translate(380,144)"/>
<path d="M0 0 C4.95 0 9.9 0 15 0 C15 10.56 15 21.12 15 32 C10.05 32 5.1 32 0 32 C0 21.44 0 10.88 0 0 Z " fill="#5796C4" transform="translate(336,144)"/>
<path d="M0 0 C4.62 0 9.24 0 14 0 C14 10.56 14 21.12 14 32 C9.38 32 4.76 32 0 32 C0 21.44 0 10.88 0 0 Z " fill="#4E90C1" transform="translate(359,144)"/>
<path d="M0 0 C4.62 0 9.24 0 14 0 C14 10.23 14 20.46 14 31 C9.38 31 4.76 31 0 31 C0 20.77 0 10.54 0 0 Z " fill="#498DBF" transform="translate(313,144)"/>
<path d="M0 0 C4.62 0 9.24 0 14 0 C14 4.62 14 9.24 14 14 C9.38 14 4.76 14 0 14 C0 9.38 0 4.76 0 0 Z " fill="#498DBF" transform="translate(381,125)"/>
<path d="M0 0 C4.62 0 9.24 0 14 0 C14 4.62 14 9.24 14 14 C9.38 14 4.76 14 0 14 C0 9.38 0 4.76 0 0 Z " fill="#4A8EC0" transform="translate(359,125)"/>
<path d="M0 0 C4.62 0 9.24 0 14 0 C14 4.62 14 9.24 14 14 C9.38 14 4.76 14 0 14 C0 9.38 0 4.76 0 0 Z " fill="#498DBF" transform="translate(337,125)"/>
<path d="M0 0 C4.62 0 9.24 0 14 0 C14 4.62 14 9.24 14 14 C9.38 14 4.76 14 0 14 C0 9.38 0 4.76 0 0 Z " fill="#4D8FC1" transform="translate(313,125)"/>
</svg>
